<?xml version="1.0" encoding="UTF-8"?>
<svg version="1.1" xmlns="http://www.w3.org/2000/svg" width="736" height="1408">
<path d="M0 0 C242.88 0 485.76 0 736 0 C736 464.64 736 929.28 736 1408 C493.12 1408 250.24 1408 0 1408 C0 943.36 0 478.72 0 0 Z " fill="#473DFA" transform="translate(0,0)"/>
<path d="M0 0 C242.88 0 485.76 0 736 0 C736 464.64 736 929.28 736 1408 C493.12 1408 250.24 1408 0 1408 C0 943.36 0 478.72 0 0 Z M43.515625 29.63671875 C41.31028803 32.49250623 40.07477752 34.2970913 39.6875 37.9375 C39.8421875 38.9584375 39.8421875 38.9584375 40 40 C39.34 40 38.68 40 38 40 C38 361.75 38 683.5 38 1015 C45.26 1015.33 52.52 1015.66 60 1016 C65.07451584 1016.82839115 69.90182178 1017.69638551 74.875 1018.875 C76.04417969 1019.13152344 77.21335938 1019.38804687 78.41796875 1019.65234375 C116.06040287 1028.13574623 152.55669247 1054.30716881 173.41796875 1086.671875 C175.7304642 1090.38287492 177.88919001 1094.17140717 180 1098 C180.34659668 1098.62068359 180.69319336 1099.24136719 181.05029297 1099.88085938 C188.86305466 1114.0458477 194.92991728 1129.64343583 196.7109375 1145.796875 C196.76879659 1147.9718332 196.76879659 1147.9718332 198 1149 C199.07810181 1158.38347872 199.10081742 1167.8790958 199.125 1177.3125 C199.12959229 1178.3012915 199.13418457 1179.29008301 199.13891602 1180.30883789 C199.11848272 1190.11600032 198.32037185 1199.47264538 196 1209 C195.79503906 1209.96421875 195.59007812 1210.9284375 195.37890625 1211.921875 C193.15151111 1222.24088073 190.60332229 1232.96667567 185 1242 C184.23235764 1243.71243295 183.50171231 1245.44202362 182.8125 1247.1875 C182.29623047 1248.47720703 182.29623047 1248.47720703 181.76953125 1249.79296875 C180.89025548 1251.92519259 180.89025548 1251.92519259 181 1254 C180.34 1254 179.68 1254 179 1254 C177.93014758 1255.68684118 176.9466086 1257.42853738 176 1259.1875 C154.67597228 1296.68078014 117.72367158 1319.87063074 77.19384766 1331.82788086 C68.97435494 1334.06434105 60.7066162 1334.9389917 52.25 1335.6875 C50.85929565 1335.81751333 49.46866969 1335.94836808 48.078125 1336.08007812 C44.71942249 1336.39495648 41.3601841 1336.70142364 38 1337 C37.84957199 1341.19501302 37.74183506 1345.38852209 37.67041016 1349.58544922 C37.64058159 1351.00727743 37.59990131 1352.42892738 37.54736328 1353.85009766 C37.16731935 1364.40935736 38.32373343 1373.53929242 45.61645508 1381.83984375 C48.16181344 1384.12453526 49.53165269 1385 53 1385 C53 1385.66 53 1386.32 53 1387 C57.54086187 1388.14132037 61.99994532 1388.13696865 66.64961243 1388.12025452 C67.95459026 1388.12153615 67.95459026 1388.12153615 69.28593129 1388.12284368 C72.20016331 1388.12449038 75.11433774 1388.11899034 78.02856445 1388.11352539 C80.11794534 1388.11324332 82.20732632 1388.11340164 84.29670715 1388.1139679 C89.96979253 1388.11425509 95.64285681 1388.10837093 101.31593728 1388.10139394 C107.24433043 1388.09514744 113.17272406 1388.09455557 119.10112 1388.09336853 C130.32781979 1388.09025905 141.55450985 1388.0820508 152.78120536 1388.07201904 C165.56221348 1388.06084604 178.34322206 1388.05534446 191.12423384 1388.05032361 C217.41616129 1388.03986789 243.7080801 1388.02227583 270 1388 C270.26799408 1387.04013184 270.53598816 1386.08026367 270.81210327 1385.09130859 C271.16720978 1383.83141113 271.52231628 1382.57151367 271.88818359 1381.2734375 C272.41392471 1379.40051025 272.41392471 1379.40051025 272.95028687 1377.48974609 C274.16997159 1373.43493352 275.66549715 1369.74258416 277.625 1366 C277.96490967 1365.3390332 278.30481934 1364.67806641 278.6550293 1363.99707031 C285.03595435 1351.95715493 293.52382616 1341.73086248 303 1332 C303.58475098 1331.39478516 304.16950195 1330.78957031 304.77197266 1330.16601562 C312.44818933 1322.24760281 320.20965655 1314.68825053 329 1308 C329.71816895 1307.44844238 330.43633789 1306.89688477 331.17626953 1306.32861328 C341.85897855 1298.14047515 352.66556015 1290.25970873 364 1283 C365.05574219 1282.3188916 365.05574219 1282.3188916 366.1328125 1281.62402344 C381.92553924 1271.45092115 398.11817213 1261.96960894 414.375 1252.5625 C415.13208252 1252.12413818 415.88916504 1251.68577637 416.66918945 1251.23413086 C421.0923384 1248.67520436 425.52224974 1246.12855955 429.95703125 1243.58984375 C456.558829 1230.40125407 456.558829 1230.40125407 476 1210 C476.66 1210 477.32 1210 478 1210 C478.23074219 1209.3709375 478.46148437 1208.741875 478.69921875 1208.09375 C483.23660598 1196.18535032 483.23660598 1196.18535032 487 1192 C490.29728531 1191.27620566 492.78288909 1192.19062114 496 1193 C502.24871275 1186.18993716 508.23346393 1179.22253853 514 1172 C514.45149414 1171.44280273 514.90298828 1170.88560547 515.36816406 1170.31152344 C516.77673019 1168.5699355 518.17101658 1166.81775376 519.5625 1165.0625 C520.22560181 1164.24688599 520.22560181 1164.24688599 520.90209961 1163.41479492 C523.39712286 1160.22761994 524 1159.21079306 524 1155 C522.7798601 1153.41156641 522.7798601 1153.41156641 521.04296875 1152.08984375 C520.42486328 1151.57486328 519.80675781 1151.05988281 519.16992188 1150.52929688 C518.51572266 1150.00400391 517.86152344 1149.47871094 517.1875 1148.9375 C515.90940482 1147.88502644 514.6320364 1146.83166957 513.35546875 1145.77734375 C512.78465576 1145.31577881 512.21384277 1144.85421387 511.62573242 1144.37866211 C511.08924072 1143.92370361 510.55274902 1143.46874512 510 1143 C509.14402222 1142.28565796 509.14402222 1142.28565796 508.27075195 1141.55688477 C507 1140 507 1140 507.3125 1136.3125 C507.539375 1135.219375 507.76625 1134.12625 508 1133 C511.61774134 1132.50753259 513.84825514 1132.30828798 517.02929688 1134.21875 C519.1685695 1135.91548482 521.21784504 1137.6763684 523.25 1139.5 C524.6456037 1140.72497332 526.0464242 1141.94403625 527.453125 1143.15625 C528.06317383 1143.70087891 528.67322266 1144.24550781 529.30175781 1144.80664062 C531.0631618 1146.28747276 531.0631618 1146.28747276 534 1146 C535.73431726 1144.10537202 535.73431726 1144.10537202 537.37109375 1141.56640625 C538.02174805 1140.61580322 538.67240234 1139.6652002 539.34277344 1138.68579102 C540.0340332 1137.65510498 540.72529297 1136.62441895 541.4375 1135.5625 C542.88888972 1133.4372041 544.34071592 1131.31220621 545.79296875 1129.1875 C546.50888184 1128.13304687 547.22479492 1127.07859375 547.96240234 1125.9921875 C561.49046055 1106.12639773 575.63209979 1086.64063025 592 1069 C592.59941406 1068.33484375 593.19882812 1067.6696875 593.81640625 1066.984375 C597.99491809 1062.54414211 602.61575886 1058.87198774 607.5 1055.25 C608.11697754 1054.78988525 608.73395508 1054.32977051 609.36962891 1053.85571289 C624.04543095 1043.21992236 642.00788376 1038.51500417 660 1041 C671.73973163 1043.34284922 683.03661847 1046.83545635 693.81811523 1052.0402832 C695.90784996 1053.13420959 695.90784996 1053.13420959 698 1053 C698.04683071 965.09960489 698.0925925 877.19920704 698.12702942 763.56752014 C698.12744777 762.12600728 698.12786613 760.68449442 698.12828448 759.24298156 C698.13705228 728.98614435 698.14520246 698.72930699 698.15263903 668.47246941 C698.15637526 653.27376247 698.16023018 638.07505556 698.16419732 622.87634868 C698.16479507 620.58366182 698.16538943 618.29097497 698.16598364 615.99828811 C698.17516505 580.688513 698.18689422 545.37874099 698.20599365 510.06896973 C698.20640435 509.30961072 698.20681505 508.55025171 698.20723819 507.76788182 C698.21387541 495.52454029 698.2207262 483.28119889 698.22760532 471.03785749 C698.24741282 435.77903387 698.26564468 400.52021264 698.27341938 365.26138401 C698.27357999 364.53651797 698.27374059 363.81165192 698.27390606 363.06482024 C698.27740312 347.1533483 698.28008779 331.24187633 698.28200295 315.33040412 C698.28278783 308.92844061 698.28368969 302.52647712 698.28463173 296.12451363 C698.28473201 295.42384083 698.28483229 294.72316804 698.28493561 294.00126274 C698.28822644 271.41480923 698.30104472 248.82837342 698.31884663 226.24192705 C698.33722858 202.86278332 698.34504688 179.48366399 698.34050413 156.10451113 C698.33821632 142.61750126 698.34435972 129.13055552 698.36239263 115.64355718 C698.37360653 106.64456438 698.37401628 97.64561379 698.36549544 88.64661813 C698.36094774 83.51250724 698.3612354 78.37851799 698.37464955 73.24441992 C698.38675066 68.57760363 698.38514748 63.91100441 698.37241993 59.24419161 C698.37026991 57.56269328 698.3731953 55.8811792 698.38170573 54.19970102 C698.3925108 51.92112641 698.38485901 49.64332559 698.37259549 47.36477512 C698.3732974 45.47031245 698.3732974 45.47031245 698.37401349 43.5375778 C697.61725378 36.37982435 694.20162661 30.87416344 689 26 C685.18705281 23.63597274 683.52645405 23 679 23 C679 22.34 679 21.68 679 21 C619.89458322 20.94865588 560.78916412 20.9008926 501.68373108 20.87297058 C500.80925046 20.87255641 499.93476985 20.87214224 499.03378982 20.87171552 C480.02994931 20.86273724 461.02610856 20.85442663 442.02226746 20.84680401 C432.70307734 20.84306193 423.38388729 20.83917228 414.06469727 20.83520508 C413.13731527 20.8348128 412.20993327 20.83442052 411.25444878 20.83401636 C381.18374454 20.82122744 351.11305719 20.79868987 321.04236318 20.77110834 C290.14633878 20.7428212 259.25032372 20.72434614 228.35428659 20.71825503 C223.99258002 20.71739054 219.63087348 20.71641363 215.26916695 20.71536827 C214.41070246 20.715166 213.55223797 20.71496373 212.66775941 20.71475533 C198.83693065 20.71120723 185.00613077 20.6972851 171.1753138 20.6795039 C157.27789301 20.66185772 143.3805009 20.65509216 129.48306929 20.65949587 C121.22168166 20.66178129 112.96039883 20.65566149 104.69903008 20.63760737 C98.53678615 20.62505813 92.37464385 20.62810252 86.21239609 20.63730332 C83.71430406 20.6385758 81.21620331 20.63472765 78.71812855 20.62535045 C75.33181711 20.61337409 71.94602483 20.61976218 68.55972195 20.63085651 C67.58181252 20.62297547 66.6039031 20.61509443 65.59636006 20.60697457 C57.06900452 20.67043795 49.46367589 23.07821 43.515625 29.63671875 Z " fill="#FEFEFE" transform="translate(0,0)"/>
<path d="M0 0 C0.33 0 0.66 0 1 0 C1 266.64 1 533.28 1 808 C9.25 808 17.5 808 26 808 C28.64 808.66 31.28 809.32 34 810 C35.93200569 810.23752161 37.87033395 810.43191087 39.8125 810.5625 C42.83836458 810.77162181 45.10412867 811.03470956 48 812 C48 812.66 48 813.32 48 814 C49.216875 814.061875 50.43375 814.12375 51.6875 814.1875 C58.19176657 814.87325334 64.01358024 817.49255061 70 820 C70 820.66 70 821.32 70 822 C71.32 822 72.64 822 74 822 C74 822.66 74 823.32 74 824 C75.32 824 76.64 824 78 824 C78 824.66 78 825.32 78 826 C78.804375 826.226875 79.60875 826.45375 80.4375 826.6875 C84.91285739 828.33631588 88.88721318 830.60544412 93 833 C93 833.66 93 834.32 93 835 C95.33214148 836.20628008 97.49642139 837.1654738 100 838 C100 838.66 100 839.32 100 840 C100.5671875 840.25910156 101.134375 840.51820313 101.71875 840.78515625 C110.85360244 845.64977801 118.52661541 853.90063095 126 861 C126.5563916 861.52770996 127.1127832 862.05541992 127.68603516 862.59912109 C129.36391986 864.20123964 131.02795466 865.81640937 132.6875 867.4375 C133.20489746 867.9334668 133.72229492 868.42943359 134.25537109 868.94042969 C136.93807855 871.59864168 138.14894176 873.38101402 139 877 C140.32097201 877.69083657 141.65686601 878.35330586 143 879 C145.12109375 881.22265625 145.12109375 881.22265625 147.4375 884.0625 C147.85781494 884.5769165 148.27812988 885.09133301 148.71118164 885.62133789 C152.52919502 890.33332513 156.23995926 895.13074892 159.9375 899.9375 C160.49300537 900.65881104 161.04851074 901.38012207 161.62084961 902.12329102 C164.30812598 905.64938944 166.77106104 909.1601145 169 913 C169.70125 913.86625 170.4025 914.7325 171.125 915.625 C173 918 173 918 174 921 C174.99 921.66 175.98 922.32 177 923 C178.03432904 924.98246398 179.03238392 926.98413316 180 929 C180.556875 929.721875 181.11375 930.44375 181.6875 931.1875 C183 933 183 933 183 936 C183.66 936 184.32 936 185 936 C186.04349839 937.63978318 187.03182008 939.31464976 188 941 C188.78193423 942.09037887 189.57436202 943.17327996 190.375 944.25 C192.80054204 947.59782899 194.7749296 951.09908388 196.7421875 954.73046875 C198.68828064 958.24189767 200.85017672 961.61104247 203 965 C204.66907627 967.69620012 206.16551457 970.33764972 207.5625 973.1875 C208.8423004 976.04751393 208.8423004 976.04751393 211 978 C212.3492671 980.92341206 213 982.75207316 213 986 C213.66 986 214.32 986 215 986 C221.31718121 997.26612502 227.37687661 1008.66671512 233.36010742 1020.11279297 C236.6571749 1026.40362698 239.97163511 1032.69451647 243.6875 1038.75 C245 1041 245 1041 245.79296875 1043.0859375 C247.47872396 1047.15575428 249.55584601 1050.988971 251.625 1054.875 C252.2905188 1056.13050659 252.2905188 1056.13050659 252.96948242 1057.41137695 C253.87654851 1059.12165405 254.78466757 1060.83137311 255.69384766 1062.54052734 C256.8889719 1064.79093512 258.07686626 1067.04495347 259.26171875 1069.30078125 C262.62076155 1075.67982328 266.01526031 1081.98407807 270 1088 C270.68835938 1089.06927734 270.68835938 1089.06927734 271.390625 1090.16015625 C274.49597048 1094.92440997 277.81915758 1099.43067837 281.38671875 1103.859375 C283 1106 283 1106 284.4140625 1108.37890625 C286.64616033 1112.06791523 289.29784166 1115.40572102 291.94726562 1118.80273438 C295 1122.78783097 295 1122.78783097 295 1125 C295.66 1125 296.32 1125 297 1125 C300.34721774 1128.08402301 303.19757515 1131.40527998 305.99609375 1134.984375 C311.06252415 1141.23902019 316.6288741 1146.89772903 322.34790039 1152.55371094 C324.0691651 1154.25659392 325.7821666 1155.96746929 327.49414062 1157.6796875 C335.88375053 1166.04300932 344.57614689 1173.74149639 353.875 1181.08203125 C354.57625 1181.71496094 355.2775 1182.34789062 356 1183 C356 1183.66 356 1184.32 356 1185 C356.85078125 1185.38671875 356.85078125 1185.38671875 357.71875 1185.78125 C360.2407237 1187.12860581 362.28159852 1188.69570013 364.5 1190.5 C365.36882812 1191.20382812 366.23765625 1191.90765625 367.1328125 1192.6328125 C369.1581093 1194.30492402 371.1735343 1195.98498077 373.1796875 1197.6796875 C373.71142578 1198.12763672 374.24316406 1198.57558594 374.79101562 1199.03710938 C376.30969675 1200.31984251 377.82294445 1201.60900015 379.3359375 1202.8984375 C381.5594532 1204.65247188 383.47207441 1205.80234897 386 1207 C385.2879541 1207.40089844 384.5759082 1207.80179688 383.84228516 1208.21484375 C361.11166143 1221.03967031 338.44659336 1234.09215611 317 1249 C316.12843262 1249.60569824 316.12843262 1249.60569824 315.23925781 1250.22363281 C281.82633366 1273.55993204 243.25320399 1302.64617785 232.95068359 1344.16845703 C232.63695801 1345.43286621 232.32323242 1346.69727539 232 1348 C204.44498816 1348.02334598 176.88997781 1348.04098755 149.33495808 1348.05181217 C136.54109174 1348.05697151 123.74723154 1348.06400733 110.95336914 1348.07543945 C99.80405571 1348.08539733 88.65474672 1348.09185607 77.50542897 1348.09408849 C71.60034236 1348.09539372 65.69526847 1348.09846774 59.79018593 1348.10573006 C54.23433401 1348.11250765 48.67850008 1348.11461339 43.12264442 1348.11310768 C41.08163353 1348.11338322 39.04062204 1348.11537804 36.99961472 1348.11920547 C34.2162584 1348.12416982 31.43297027 1348.12298809 28.64961243 1348.12025452 C27.8392956 1348.12316736 27.02897876 1348.1260802 26.19410688 1348.12908131 C22.337882 1348.11882266 18.74810246 1347.9420647 15 1347 C15 1346.34 15 1345.68 15 1345 C14.443125 1344.9175 13.88625 1344.835 13.3125 1344.75 C8.17474375 1343.08370067 5.19890835 1339.38880075 2.7109375 1334.765625 C-0.90072525 1327.15360037 -0.67774406 1319.93932201 -0.375 1311.75 C-0.34481653 1310.31125469 -0.31745571 1308.87244729 -0.29296875 1307.43359375 C-0.22773981 1303.95441009 -0.12470321 1300.47762092 0 1297 C0.79881592 1296.94054199 1.59763184 1296.88108398 2.4206543 1296.81982422 C19.19360819 1295.5132158 35.03877866 1293.64135207 51 1288 C51.77730469 1287.73171387 52.55460937 1287.46342773 53.35546875 1287.18701172 C89.85727251 1274.41596606 123.37621856 1249.0620494 141 1214 C141.66 1214 142.32 1214 143 1214 C143.3403125 1212.576875 143.3403125 1212.576875 143.6875 1211.125 C144.56634231 1208.01810677 145.79794757 1205.34812061 147.3125 1202.5 C152.72110102 1191.98593489 155.55405772 1180.50669702 158 1169 C158.19464844 1168.20078125 158.38929688 1167.4015625 158.58984375 1166.578125 C160.92829825 1156.95120284 161.17082624 1147.17961368 161.125 1137.3125 C161.12234131 1136.27536865 161.11968262 1135.2382373 161.11694336 1134.16967773 C162.07089796 1120.31342411 162.07089796 1120.31342411 159 1108 C158.62630444 1105.79488736 158.27741482 1103.58557188 157.9375 1101.375 C151.04205424 1062.24693671 126.76608991 1027.78640823 94.75 1004.9375 C83.1363424 996.81967323 71.23909664 990.17443566 58 985 C56.66195312 984.46439453 56.66195312 984.46439453 55.296875 983.91796875 C48.5686072 981.4489699 41.60948018 979.86839324 34.625 978.3125 C33.71186035 978.09779053 32.7987207 977.88308105 31.85791016 977.66186523 C21.07473572 975.37494051 11.43932183 975.51996917 0 975 C0 653.25 0 331.5 0 0 Z " fill="#6259FA" transform="translate(38,40)"/>
<path d="M0 0 C0 103.95 0 207.9 0 315 C-0.66 315 -1.32 315 -2 315 C-1.9175 315.70125 -1.835 316.4025 -1.75 317.125 C-2.23171372 322.66470779 -6.40976585 327.01427005 -10.2734375 330.80859375 C-13.3503339 332.93179149 -16.325825 332.87330431 -20 333 C-20 333.66 -20 334.32 -20 335 C-154.64 335 -289.28 335 -428 335 C-424.89446086 310.15568688 -408.06209115 290.82641022 -391 273.6875 C-389.62968628 272.30872681 -389.62968628 272.30872681 -388.23168945 270.90209961 C-372.02251205 254.86386536 -353.17644875 241.28251543 -334 229 C-333.29617188 228.54592773 -332.59234375 228.09185547 -331.8671875 227.62402344 C-316.07446076 217.45092115 -299.88182787 207.96960894 -283.625 198.5625 C-282.86791748 198.12413818 -282.11083496 197.68577637 -281.33081055 197.23413086 C-276.9076616 194.67520436 -272.47775026 192.12855955 -268.04296875 189.58984375 C-242.13848192 176.60342271 -242.13848192 176.60342271 -222 157 C-221.34 157 -220.68 157 -220 157 C-219.773125 156.05125 -219.54625 155.1025 -219.3125 154.125 C-217.70026397 148.45317686 -215.2004893 142.2004893 -211 138 C-207.7692319 137.74493936 -205.1070309 138.17366199 -202 139 C-194.20433511 130.02945654 -186.63444152 120.91456701 -179.26171875 111.59326172 C-177.51606208 109.38889727 -175.75857152 107.19406683 -174 105 C-175.53643982 101.03760257 -178.00620885 99.14400202 -181.3125 96.5625 C-185.12081027 93.57508062 -188.81038215 90.65610675 -192 87 C-191.79310345 80.79310345 -191.79310345 80.79310345 -190 79 C-186.54427975 78.47210435 -184.02842065 78.39219626 -180.95849609 80.20654297 C-178.79532203 81.87926842 -176.7350867 83.62522447 -174.6875 85.4375 C-173.27567991 86.64563098 -171.86296246 87.85271434 -170.44921875 89.05859375 C-169.52629028 89.86768188 -169.52629028 89.86768188 -168.5847168 90.69311523 C-167.01868631 92.08400859 -167.01868631 92.08400859 -165 93 C-164.5781543 92.3922876 -164.15630859 91.7845752 -163.72167969 91.15844727 C-158.82122198 84.10091071 -153.91362126 77.04837807 -149 70 C-148.42507813 69.175 -147.85015625 68.35 -147.2578125 67.5 C-134.75853672 49.59058992 -121.894236 32.01783626 -107 16 C-106.32710937 15.26136719 -105.65421875 14.52273438 -104.9609375 13.76171875 C-100.48501332 9.04272004 -95.65158846 5.0487613 -90.4375 1.1875 C-89.51783447 0.50312866 -89.51783447 0.50312866 -88.57958984 -0.19506836 C-60.39240701 -20.55664851 -29.63680837 -13.67852694 0 0 Z " fill="#F5838C" transform="translate(698,1053)"/>
<path d="M0 0 C25.37234043 0 25.37234043 0 36.875 2.8125 C38.04417969 3.07353516 39.21335938 3.33457031 40.41796875 3.60351562 C78.49899688 12.33670724 115.29890708 38.91419547 136.4140625 71.66796875 C138.72848964 75.3799897 140.88828125 79.16975885 143 83 C143.34659668 83.62068359 143.69319336 84.24136719 144.05029297 84.88085938 C151.86305466 99.0458477 157.92991728 114.64343583 159.7109375 130.796875 C159.76879659 132.9718332 159.76879659 132.9718332 161 134 C162.07810181 143.38347872 162.10081742 152.8790958 162.125 162.3125 C162.12959229 163.3012915 162.13418457 164.29008301 162.13891602 165.30883789 C162.11848272 175.11600032 161.32037185 184.47264538 159 194 C158.79503906 194.96421875 158.59007812 195.9284375 158.37890625 196.921875 C156.15001219 207.24782489 153.59558319 217.9552875 148 227 C147.25493105 228.71365858 146.54526619 230.44322459 145.875 232.1875 C144.05960265 236.8807947 144.05960265 236.8807947 143 239 C142.34 239 141.68 239 141 239 C140.76152344 239.85464844 140.52304688 240.70929688 140.27734375 241.58984375 C138.86642968 245.35659599 136.926936 248.35336194 134.5625 251.5625 C134.12292969 252.16674805 133.68335938 252.77099609 133.23046875 253.39355469 C108.46221334 286.99512153 71.76686056 312.7317473 30 320 C19.94161829 321.42720281 10.19863689 322 0 322 C0 215.74 0 109.48 0 0 Z " fill="#FCAF7E" transform="translate(38,1015)"/>
<path d="M0 0 C0.66 0 1.32 0 2 0 C2.32871094 0.7734375 2.65742187 1.546875 2.99609375 2.34375 C6.61392542 10.26572287 10.97799824 16.98899912 19 21 C19.5 23.625 19.5 23.625 19 27 C17.18062775 28.6835982 15.21897867 29.98076313 13.16796875 31.37109375 C7.56193059 35.58319809 4.41622597 41.55673076 2 48 C1.34 48 0.68 48 0 48 C-0.3403125 47.21496094 -0.680625 46.42992187 -1.03125 45.62109375 C-6.05320028 34.73574938 -11.78827324 29.17844446 -23 25 C-23 24.34 -23 23.68 -23 23 C-22.21496094 22.6596875 -21.42992187 22.319375 -20.62109375 21.96875 C-9.73574938 16.94679972 -4.17844446 11.21172676 0 0 Z " fill="#FABFC4" transform="translate(679,1328)"/>
<path d="M0 0 C5.2338833 0.56002551 7.54994808 2.70604954 11.40625 6.10546875 C12.43032959 6.97328979 12.43032959 6.97328979 13.47509766 7.85864258 C15.63361811 9.69524362 17.77019316 11.55531945 19.90625 13.41796875 C21.34013947 14.64830924 22.77502105 15.87749452 24.2109375 17.10546875 C33.9676395 25.47935825 33.9676395 25.47935825 36.90625 28.41796875 C36.44471154 34.87950721 36.44471154 34.87950721 33.90625 37.41796875 C28.01926447 37.2916687 25.43075612 35.64741586 21.34375 31.54296875 C16.42193593 26.74083164 11.28809132 22.44392392 5.80249023 18.29931641 C1.83555325 15.26799418 -1.77539632 12.16303962 -5.09375 8.41796875 C-4.96675073 0.67101304 -4.96675073 0.67101304 0 0 Z " fill="#F9F7FB" transform="translate(511.09375,1131.58203125)"/>
<path d="M0 0 C2.5625 0.3125 2.5625 0.3125 4.375 1.375 C6.31732996 4.54406466 6.03564053 6.64566085 5.5625 10.3125 C4.43962416 12.66638045 3.15906564 14.859461 1.80859375 17.08984375 C0.12236114 20.09757527 -0.65452451 22.96705927 -1.4375 26.3125 C-2.0975 26.3125 -2.7575 26.3125 -3.4375 26.3125 C-3.52773438 26.96734375 -3.61796875 27.6221875 -3.7109375 28.296875 C-4.67919065 32.31564614 -6.28871861 35.84090583 -8.0625 39.5625 C-8.38089844 40.2946875 -8.69929688 41.026875 -9.02734375 41.78125 C-10.02188892 43.85481907 -10.9312256 45.57271217 -12.4375 47.3125 C-18.22482359 48.97751609 -18.22482359 48.97751609 -21.375 47.25 C-22.93811638 44.3996113 -22.73698071 42.55812219 -22.4375 39.3125 C-21.35055884 36.48026861 -19.9455343 33.85123671 -18.5 31.1875 C-17.75816104 29.79094652 -17.01975714 28.3925618 -16.28515625 26.9921875 C-15.95523682 26.38101074 -15.62531738 25.76983398 -15.28540039 25.14013672 C-14.39449576 23.219805 -13.88602271 21.37712836 -13.4375 19.3125 C-12.7775 19.3125 -12.1175 19.3125 -11.4375 19.3125 C-11.210625 18.36375 -10.98375 17.415 -10.75 16.4375 C-9.20643885 11.0072741 -6.28695504 0.80601988 0 0 Z " fill="#FCFAFB" transform="translate(489.4375,1190.6875)"/>
<path d="M0 0 C2 1.0625 2 1.0625 3 3 C3.31240392 6.12403917 3.29379177 7.23918911 2 10 C-0.11948725 12.30115759 -2.41949536 14.24705126 -4.81640625 16.2578125 C-8.76788428 19.58792475 -12.40488557 23.22873648 -16.0625 26.875 C-16.72975098 27.52984375 -17.39700195 28.1846875 -18.08447266 28.859375 C-18.70757324 29.48070312 -19.33067383 30.10203125 -19.97265625 30.7421875 C-20.53218994 31.2976123 -21.09172363 31.85303711 -21.66821289 32.42529297 C-23.23164725 34.07633381 -23.23164725 34.07633381 -24 37 C-31.38804781 37.36334661 -31.38804781 37.36334661 -34 35.8125 C-35.46584806 33.15565039 -35.61709562 32.01691194 -35 29 C-33.24609954 26.42010361 -31.32212916 24.08750989 -29 22 C-28.34 22 -27.68 22 -27 22 C-27 21.34 -27 20.68 -27 20 C-26.34 20 -25.68 20 -25 20 C-24.34 18.68 -23.68 17.36 -23 16 C-22.34 16 -21.68 16 -21 16 C-20.78730469 15.46890625 -20.57460938 14.9378125 -20.35546875 14.390625 C-18.4715093 11.0679069 -15.95627032 8.46856333 -13.3125 5.75 C-12.80783203 5.19570312 -12.30316406 4.64140625 -11.78320312 4.0703125 C-7.99963254 0.18629314 -5.61407289 -0.73994431 0 0 Z " fill="#F5F5FD" transform="translate(465,1118)"/>
<path d="M0 0 C0.33 0.66 0.66 1.32 1 2 C0.06553465 4.03144641 -0.93224776 6.03533587 -2 8 C-2.99 8 -3.98 8 -5 8 C-5.33 8.99 -5.66 9.98 -6 11 C-7.65 10.67 -9.3 10.34 -11 10 C-7.50640535 6.40365256 -3.88901869 3.16548033 0 0 Z " fill="#E57C9B" transform="translate(475,1212)"/>
<path d="M0 0 C0.33 0.66 0.66 1.32 1 2 C-0.07192184 3.3218362 -1.15802695 4.63217927 -2.25 5.9375 C-2.85328125 6.66839844 -3.4565625 7.39929687 -4.078125 8.15234375 C-6.10741134 10.10326334 -7.254407 10.61731779 -10 11 C-6.79239749 7.19364503 -3.59253891 3.45436433 0 0 Z " fill="#7472FB" transform="translate(451,1142)"/>
<path d="M0 0 C0.66 0.33 1.32 0.66 2 1 C-2.296875 5.00390625 -2.296875 5.00390625 -4 6 C-6.203125 5.65234375 -6.203125 5.65234375 -8 5 C-6.71475739 4.13619741 -5.42157581 3.28419631 -4.125 2.4375 C-3.04605469 1.72400391 -3.04605469 1.72400391 -1.9453125 0.99609375 C-1.30335938 0.66738281 -0.66140625 0.33867188 0 0 Z " fill="#DA6FA4" transform="translate(454,1228)"/>
<path d="M0 0 C0.33 0.66 0.66 1.32 1 2 C0.06553465 4.03144641 -0.93224776 6.03533587 -2 8 C-3.32 7.01 -4.64 6.02 -6 5 C-4.02 3.35 -2.04 1.7 0 0 Z " fill="#E18AAD" transform="translate(475,1212)"/>
<path d="M0 0 C0.78375 0.04125 1.5675 0.0825 2.375 0.125 C1.75625 0.2075 1.1375 0.29 0.5 0.375 C-1.79169871 0.91826091 -1.79169871 0.91826091 -2.6875 3.0625 C-2.996875 3.743125 -3.30625 4.42375 -3.625 5.125 C-4.615 5.785 -5.605 6.445 -6.625 7.125 C-4.07142857 0.19387755 -4.07142857 0.19387755 0 0 Z " fill="#CECEFC" transform="translate(489.625,1190.875)"/>
</svg>
